<?xml version="1.0" encoding="UTF-8" standalone="no"?>
<!-- Created with Inkscape (http://www.inkscape.org/) -->

<svg
   xmlns:dc="http://purl.org/dc/elements/1.1/"
   xmlns:cc="http://creativecommons.org/ns#"
   xmlns:rdf="http://www.w3.org/1999/02/22-rdf-syntax-ns#"
   xmlns:svg="http://www.w3.org/2000/svg"
   xmlns="http://www.w3.org/2000/svg"
   xmlns:sodipodi="http://sodipodi.sourceforge.net/DTD/sodipodi-0.dtd"
   xmlns:inkscape="http://www.inkscape.org/namespaces/inkscape"
   width="192"
   height="192"
   viewBox="0 0 50.799999 50.800001"
   version="1.1"
   id="svg8"
   inkscape:version="0.92.2 5c3e80d, 2017-08-06"
   sodipodi:docname="iai-icon.svg"
   inkscape:export-filename="/home/PROXECTOS/iai/app/pingpong/www/img/iai-icon.png"
   inkscape:export-xdpi="96"
   inkscape:export-ydpi="96">
  <defs
     id="defs2" />
  <sodipodi:namedview
     id="base"
     pagecolor="#ffffff"
     bordercolor="#666666"
     borderopacity="1.0"
     inkscape:pageopacity="0.0"
     inkscape:pageshadow="2"
     inkscape:zoom="1.4851817"
     inkscape:cx="21.677668"
     inkscape:cy="102.23913"
     inkscape:document-units="mm"
     inkscape:current-layer="layer1"
     showgrid="false"
     units="px"
     inkscape:snap-page="true"
     inkscape:window-width="1024"
     inkscape:window-height="543"
     inkscape:window-x="0"
     inkscape:window-y="0"
     inkscape:window-maximized="1"
     inkscape:snap-bbox="true"
     inkscape:bbox-nodes="true" />
  <metadata
     id="metadata5">
    <rdf:RDF>
      <cc:Work
         rdf:about="">
        <dc:format>image/svg+xml</dc:format>
        <dc:type
           rdf:resource="http://purl.org/dc/dcmitype/StillImage" />
        <dc:title />
      </cc:Work>
    </rdf:RDF>
  </metadata>
  <g
     inkscape:label="Capa 1"
     inkscape:groupmode="layer"
     id="layer1"
     transform="translate(0,-246.19998)">
    <rect
       style="opacity:1;fill:#800080;fill-opacity:1;stroke:none;stroke-width:16.88699913;stroke-miterlimit:4;stroke-dasharray:none"
       id="rect4687"
       width="50.799999"
       height="50.799999"
       x="0"
       y="246.19998"
       rx="7.9375"
       ry="7.9375" />
    <g
       id="g4685"
       transform="rotate(171.77815,24.37341,271.93248)"
       style="fill:#00ff00">
      <g
         transform="matrix(0.24005499,0,0,0.24005499,24.570969,197.32281)"
         id="g27"
         style="fill:#00ff00">
        <path
           style="display:inline;fill:#00ff00;fill-rule:evenodd;stroke:none;stroke-width:0.26458332"
           d="m 10.857938,215.63202 -10.32155519,0.0417 c 0,0.0101 0,0.0127 0,0.019 0,0.0238 0,0.0484 0,0.0723 0,0.0939 0.0071,0.18693 0.01085,0.27874 0,0 0,0 0,0 0.01482,0.36139 0.03193,0.71845 0.04905,1.07138 0,0 0,0 0,0 0,0 0,0 0,0 0.06718,1.33776 0.149595,2.66681 0.241617,3.98745 0,0 0,0 0,0 0.32863899,4.71779 0.78012399,9.41409 1.33011399,14.08748 0,0 0,0 0,0 1.682247,14.33451 4.275455,28.60889 8.2508722,42.4992 0,0 0,0 0,0 0,0 0,0 0,0 2.203609,7.70334 4.859629,15.31009 8.197903,22.61952 0,0 0,0 0,0 3.168095,6.94769 6.988016,13.66747 11.786156,19.64145 4.420843,5.5119 9.770751,10.36233 15.994411,13.65059 6.3595,3.35074 13.54153,4.87675 20.59032,4.63415 -7.04879,-0.24254 -13.9873,-2.25507 -19.8683,-5.89782 -5.77744,-3.56839 -10.53767,-8.57158 -14.410852,-14.11648 -4.205552,-6.02871 -7.397565,-12.71426 -10.001594,-19.6165 0,0 0,0 0,0 -2.734601,-7.26217 -4.782079,-14.77372 -6.408288,-22.38531 0,0 0,0 0,0 -2.932774,-13.73483 -4.477438,-27.73397 -5.16128,-41.7767 0,0 0,0 0,0 -0.220927,-4.57327 -0.344619,-9.14043 -0.347556,-13.69547 0,0 0,0 0,0 0,-1.27521 0.0085,-2.54288 0.03119,-3.80235 0,0 0,0 0,0 0.0063,-0.33224 0.01323,-0.6603 0.02222,-0.98407 0,0 0,0 0,0 0,-0.0847 0.0063,-0.16777 0.0071,-0.24979 0,-0.0209 0,-0.0417 0,-0.0631 2.38e-4,0 0,-0.01 0,-0.0156 z"
           id="path4580"
           inkscape:connector-curvature="0" />
        <path
           style="display:inline;fill:#00ff00;fill-rule:evenodd;stroke:none;stroke-width:0.26458332"
           d="m 66.991036,343.39518 v -10.32166 c -16.33024,0.60817 -31.971957,5.13945 -46.417439,11.52025 -14.0131272,6.1835 -27.0765592,14.05107 -39.341372,22.8115 0,0 0,0 0,0 -12.60983,10.7447 -25.17402,21.45226 -37.692622,32.12298 0,0 0,0 0,0 0,0 0,0 0,0 0,0 0,0 0,0 0,0 0,0 0,0 13.317564,-9.76669 26.589541,-19.49635 39.815823,-29.18912 0,0 0,0 0,0 12.7105308,-7.7325 25.9769768,-14.43977 39.774839,-19.31667 14.30962,-5.05508 29.245291,-8.23543 43.860771,-7.62728 z"
           id="path4582"
           inkscape:connector-curvature="0" />
        <path
           style="display:inline;fill:#00ff00;fill-rule:evenodd;stroke:none;stroke-width:0.26458332"
           d="m -60.084024,395.85351 7.247255,7.34941 c 15.786206,-16.42343 27.153844,-36.25496 35.472502,-56.88036 8.0091488,-19.816 13.3918588,-40.49308 17.05977781,-61.34481 0,0 0,0 0,0 2.86604599,-16.27987 4.69680399,-32.71004 5.55172599,-49.16252 0,0 0,0 0,0 0.255746,-4.91985 0.424153,-9.84375 0.468497,-14.76619 0,0 0,0 0,0 0.01217,-1.33495 0.01508,-2.66983 0,-4.00431 0,0 0,0 0,0 0,-0.34716 -0.0082,-0.69429 -0.01376,-1.04135 0,-1.5e-4 0,-1.5e-4 0,-1.5e-4 0,-0.0888 0,-0.1773 -0.0063,-0.26594 0,-0.0228 0,-0.045 0,-0.0671 -1.06e-4,-0.0108 -1.06e-4,-0.0156 -1.06e-4,-0.0228 0,0 0,0 0,0 0,0 0,0 0,0 0,0.0101 -7.9e-5,0.0156 -1.85e-4,0.0228 0,0.0228 0,0.0455 0,0.0671 0,0.0888 -0.0063,0.17733 -0.0085,0.26591 -0.01217,0.34689 -0.02566,0.69358 -0.04072,1.04029 -0.05699,1.33284 -0.129223,2.66448 -0.210529,3.99574 0,0 0,0 0,0 -0.299799,4.90878 -0.723133,9.8068 -1.232932,14.69435 0,0 0,0 0,0 -1.704737,16.34474 -4.37493799,32.5652 -8.04926,48.52543 0,0 0,0 0,0 -4.709054,20.44194 -11.0600328,40.48574 -19.8470568,59.31212 -9.153393,19.5717 -20.967409,37.93088 -36.38984,52.28238 z"
           id="path4584"
           inkscape:connector-curvature="0" />
      </g>
      <g
         id="g4567"
         transform="matrix(0.23187531,0.0621308,-0.0621308,0.23187531,43.823566,199.63917)"
         style="fill:#00ff00">
        <path
           inkscape:connector-curvature="0"
           id="path4561"
           d="m 10.857938,215.63202 -10.32155519,0.0417 c 0,0.0101 0,0.0127 0,0.019 0,0.0238 0,0.0484 0,0.0723 0,0.0939 0.0071,0.18693 0.01085,0.27874 0,0 0,0 0,0 0.01482,0.36139 0.03193,0.71845 0.04905,1.07138 0,0 0,0 0,0 0,0 0,0 0,0 0.06718,1.33776 0.149595,2.66681 0.241617,3.98745 0,0 0,0 0,0 0.32863899,4.71779 0.78012399,9.41409 1.33011399,14.08748 0,0 0,0 0,0 1.682247,14.33451 4.275455,28.60889 8.2508722,42.4992 0,0 0,0 0,0 0,0 0,0 0,0 2.203609,7.70334 4.859629,15.31009 8.197903,22.61952 0,0 0,0 0,0 3.168095,6.94769 6.988016,13.66747 11.786156,19.64145 4.420843,5.5119 9.770751,10.36233 15.994411,13.65059 6.3595,3.35074 13.54153,4.87675 20.59032,4.63415 -7.04879,-0.24254 -13.9873,-2.25507 -19.8683,-5.89782 -5.77744,-3.56839 -10.53767,-8.57158 -14.410852,-14.11648 -4.205552,-6.02871 -7.397565,-12.71426 -10.001594,-19.6165 0,0 0,0 0,0 -2.734601,-7.26217 -4.782079,-14.77372 -6.408288,-22.38531 0,0 0,0 0,0 -2.932774,-13.73483 -4.477438,-27.73397 -5.16128,-41.7767 0,0 0,0 0,0 -0.220927,-4.57327 -0.344619,-9.14043 -0.347556,-13.69547 0,0 0,0 0,0 0,-1.27521 0.0085,-2.54288 0.03119,-3.80235 0,0 0,0 0,0 0.0063,-0.33224 0.01323,-0.6603 0.02222,-0.98407 0,0 0,0 0,0 0,-0.0847 0.0063,-0.16777 0.0071,-0.24979 0,-0.0209 0,-0.0417 0,-0.0631 2.38e-4,0 0,-0.01 0,-0.0156 z"
           style="display:inline;fill:#00ff00;fill-rule:evenodd;stroke:none;stroke-width:0.26458332" />
        <path
           inkscape:connector-curvature="0"
           id="path4563"
           d="m 66.991036,343.39518 v -10.32166 c -16.33024,0.60817 -31.971957,5.13945 -46.417439,11.52025 -14.0131272,6.1835 -27.0765592,14.05107 -39.341372,22.8115 0,0 0,0 0,0 -12.60983,10.7447 -25.17402,21.45226 -37.692622,32.12298 0,0 0,0 0,0 0,0 0,0 0,0 0,0 0,0 0,0 0,0 0,0 0,0 13.317564,-9.76669 26.589541,-19.49635 39.815823,-29.18912 0,0 0,0 0,0 12.7105308,-7.7325 25.9769768,-14.43977 39.774839,-19.31667 14.30962,-5.05508 29.245291,-8.23543 43.860771,-7.62728 z"
           style="display:inline;fill:#00ff00;fill-rule:evenodd;stroke:none;stroke-width:0.26458332" />
        <path
           inkscape:connector-curvature="0"
           id="path4565"
           d="m -60.084024,395.85351 7.247255,7.34941 c 15.786206,-16.42343 27.153844,-36.25496 35.472502,-56.88036 8.0091488,-19.816 13.3918588,-40.49308 17.05977781,-61.34481 0,0 0,0 0,0 2.86604599,-16.27987 4.69680399,-32.71004 5.55172599,-49.16252 0,0 0,0 0,0 0.255746,-4.91985 0.424153,-9.84375 0.468497,-14.76619 0,0 0,0 0,0 0.01217,-1.33495 0.01508,-2.66983 0,-4.00431 0,0 0,0 0,0 0,-0.34716 -0.0082,-0.69429 -0.01376,-1.04135 0,-1.5e-4 0,-1.5e-4 0,-1.5e-4 0,-0.0888 0,-0.1773 -0.0063,-0.26594 0,-0.0228 0,-0.045 0,-0.0671 -1.06e-4,-0.0108 -1.06e-4,-0.0156 -1.06e-4,-0.0228 0,0 0,0 0,0 0,0 0,0 0,0 0,0.0101 -7.9e-5,0.0156 -1.85e-4,0.0228 0,0.0228 0,0.0455 0,0.0671 0,0.0888 -0.0063,0.17733 -0.0085,0.26591 -0.01217,0.34689 -0.02566,0.69358 -0.04072,1.04029 -0.05699,1.33284 -0.129223,2.66448 -0.210529,3.99574 0,0 0,0 0,0 -0.299799,4.90878 -0.723133,9.8068 -1.232932,14.69435 0,0 0,0 0,0 -1.704737,16.34474 -4.37493799,32.5652 -8.04926,48.52543 0,0 0,0 0,0 -4.709054,20.44194 -11.0600328,40.48574 -19.8470568,59.31212 -9.153393,19.5717 -20.967409,37.93088 -36.38984,52.28238 z"
           style="display:inline;fill:#00ff00;fill-rule:evenodd;stroke:none;stroke-width:0.26458332" />
      </g>
      <g
         transform="matrix(0.20789372,0.12002749,-0.12002749,0.20789372,61.229304,207.68221)"
         id="g4575"
         style="fill:#00ff00">
        <path
           style="display:inline;fill:#00ff00;fill-rule:evenodd;stroke:none;stroke-width:0.26458332"
           d="m 10.857938,215.63202 -10.32155519,0.0417 c 0,0.0101 0,0.0127 0,0.019 0,0.0238 0,0.0484 0,0.0723 0,0.0939 0.0071,0.18693 0.01085,0.27874 0,0 0,0 0,0 0.01482,0.36139 0.03193,0.71845 0.04905,1.07138 0,0 0,0 0,0 0,0 0,0 0,0 0.06718,1.33776 0.149595,2.66681 0.241617,3.98745 0,0 0,0 0,0 0.32863899,4.71779 0.78012399,9.41409 1.33011399,14.08748 0,0 0,0 0,0 1.682247,14.33451 4.275455,28.60889 8.2508722,42.4992 0,0 0,0 0,0 0,0 0,0 0,0 2.203609,7.70334 4.859629,15.31009 8.197903,22.61952 0,0 0,0 0,0 3.168095,6.94769 6.988016,13.66747 11.786156,19.64145 4.420843,5.5119 9.770751,10.36233 15.994411,13.65059 6.3595,3.35074 13.54153,4.87675 20.59032,4.63415 -7.04879,-0.24254 -13.9873,-2.25507 -19.8683,-5.89782 -5.77744,-3.56839 -10.53767,-8.57158 -14.410852,-14.11648 -4.205552,-6.02871 -7.397565,-12.71426 -10.001594,-19.6165 0,0 0,0 0,0 -2.734601,-7.26217 -4.782079,-14.77372 -6.408288,-22.38531 0,0 0,0 0,0 -2.932774,-13.73483 -4.477438,-27.73397 -5.16128,-41.7767 0,0 0,0 0,0 -0.220927,-4.57327 -0.344619,-9.14043 -0.347556,-13.69547 0,0 0,0 0,0 0,-1.27521 0.0085,-2.54288 0.03119,-3.80235 0,0 0,0 0,0 0.0063,-0.33224 0.01323,-0.6603 0.02222,-0.98407 0,0 0,0 0,0 0,-0.0847 0.0063,-0.16777 0.0071,-0.24979 0,-0.0209 0,-0.0417 0,-0.0631 2.38e-4,0 0,-0.01 0,-0.0156 z"
           id="path4569"
           inkscape:connector-curvature="0" />
        <path
           style="display:inline;fill:#00ff00;fill-rule:evenodd;stroke:none;stroke-width:0.26458332"
           d="m 66.991036,343.39518 v -10.32166 c -16.33024,0.60817 -31.971957,5.13945 -46.417439,11.52025 -14.0131272,6.1835 -27.0765592,14.05107 -39.341372,22.8115 0,0 0,0 0,0 -12.60983,10.7447 -25.17402,21.45226 -37.692622,32.12298 0,0 0,0 0,0 0,0 0,0 0,0 0,0 0,0 0,0 0,0 0,0 0,0 13.317564,-9.76669 26.589541,-19.49635 39.815823,-29.18912 0,0 0,0 0,0 12.7105308,-7.7325 25.9769768,-14.43977 39.774839,-19.31667 14.30962,-5.05508 29.245291,-8.23543 43.860771,-7.62728 z"
           id="path4571"
           inkscape:connector-curvature="0" />
        <path
           style="display:inline;fill:#00ff00;fill-rule:evenodd;stroke:none;stroke-width:0.26458332"
           d="m -60.084024,395.85351 7.247255,7.34941 c 15.786206,-16.42343 27.153844,-36.25496 35.472502,-56.88036 8.0091488,-19.816 13.3918588,-40.49308 17.05977781,-61.34481 0,0 0,0 0,0 2.86604599,-16.27987 4.69680399,-32.71004 5.55172599,-49.16252 0,0 0,0 0,0 0.255746,-4.91985 0.424153,-9.84375 0.468497,-14.76619 0,0 0,0 0,0 0.01217,-1.33495 0.01508,-2.66983 0,-4.00431 0,0 0,0 0,0 0,-0.34716 -0.0082,-0.69429 -0.01376,-1.04135 0,-1.5e-4 0,-1.5e-4 0,-1.5e-4 0,-0.0888 0,-0.1773 -0.0063,-0.26594 0,-0.0228 0,-0.045 0,-0.0671 -1.06e-4,-0.0108 -1.06e-4,-0.0156 -1.06e-4,-0.0228 0,0 0,0 0,0 0,0 0,0 0,0 0,0.0101 -7.9e-5,0.0156 -1.85e-4,0.0228 0,0.0228 0,0.0455 0,0.0671 0,0.0888 -0.0063,0.17733 -0.0085,0.26591 -0.01217,0.34689 -0.02566,0.69358 -0.04072,1.04029 -0.05699,1.33284 -0.129223,2.66448 -0.210529,3.99574 0,0 0,0 0,0 -0.299799,4.90878 -0.723133,9.8068 -1.232932,14.69435 0,0 0,0 0,0 -1.704737,16.34474 -4.37493799,32.5652 -8.04926,48.52543 0,0 0,0 0,0 -4.709054,20.44194 -11.0600328,40.48574 -19.8470568,59.31212 -9.153393,19.5717 -20.967409,37.93088 -36.38984,52.28238 z"
           id="path4573"
           inkscape:connector-curvature="0" />
      </g>
      <g
         id="g4583"
         transform="matrix(0.16974451,0.16974451,-0.16974451,0.16974451,75.894264,220.62284)"
         style="fill:#00ff00">
        <path
           inkscape:connector-curvature="0"
           id="path4577"
           d="m 10.857938,215.63202 -10.32155519,0.0417 c 0,0.0101 0,0.0127 0,0.019 0,0.0238 0,0.0484 0,0.0723 0,0.0939 0.0071,0.18693 0.01085,0.27874 0,0 0,0 0,0 0.01482,0.36139 0.03193,0.71845 0.04905,1.07138 0,0 0,0 0,0 0,0 0,0 0,0 0.06718,1.33776 0.149595,2.66681 0.241617,3.98745 0,0 0,0 0,0 0.32863899,4.71779 0.78012399,9.41409 1.33011399,14.08748 0,0 0,0 0,0 1.682247,14.33451 4.275455,28.60889 8.2508722,42.4992 0,0 0,0 0,0 0,0 0,0 0,0 2.203609,7.70334 4.859629,15.31009 8.197903,22.61952 0,0 0,0 0,0 3.168095,6.94769 6.988016,13.66747 11.786156,19.64145 4.420843,5.5119 9.770751,10.36233 15.994411,13.65059 6.3595,3.35074 13.54153,4.87675 20.59032,4.63415 -7.04879,-0.24254 -13.9873,-2.25507 -19.8683,-5.89782 -5.77744,-3.56839 -10.53767,-8.57158 -14.410852,-14.11648 -4.205552,-6.02871 -7.397565,-12.71426 -10.001594,-19.6165 0,0 0,0 0,0 -2.734601,-7.26217 -4.782079,-14.77372 -6.408288,-22.38531 0,0 0,0 0,0 -2.932774,-13.73483 -4.477438,-27.73397 -5.16128,-41.7767 0,0 0,0 0,0 -0.220927,-4.57327 -0.344619,-9.14043 -0.347556,-13.69547 0,0 0,0 0,0 0,-1.27521 0.0085,-2.54288 0.03119,-3.80235 0,0 0,0 0,0 0.0063,-0.33224 0.01323,-0.6603 0.02222,-0.98407 0,0 0,0 0,0 0,-0.0847 0.0063,-0.16777 0.0071,-0.24979 0,-0.0209 0,-0.0417 0,-0.0631 2.38e-4,0 0,-0.01 0,-0.0156 z"
           style="display:inline;fill:#00ff00;fill-rule:evenodd;stroke:none;stroke-width:0.26458332" />
        <path
           inkscape:connector-curvature="0"
           id="path4579"
           d="m 66.991036,343.39518 v -10.32166 c -16.33024,0.60817 -31.971957,5.13945 -46.417439,11.52025 -14.0131272,6.1835 -27.0765592,14.05107 -39.341372,22.8115 0,0 0,0 0,0 -12.60983,10.7447 -25.17402,21.45226 -37.692622,32.12298 0,0 0,0 0,0 0,0 0,0 0,0 0,0 0,0 0,0 0,0 0,0 0,0 13.317564,-9.76669 26.589541,-19.49635 39.815823,-29.18912 0,0 0,0 0,0 12.7105308,-7.7325 25.9769768,-14.43977 39.774839,-19.31667 14.30962,-5.05508 29.245291,-8.23543 43.860771,-7.62728 z"
           style="display:inline;fill:#00ff00;fill-rule:evenodd;stroke:none;stroke-width:0.26458332" />
        <path
           inkscape:connector-curvature="0"
           id="path4581"
           d="m -60.084024,395.85351 7.247255,7.34941 c 15.786206,-16.42343 27.153844,-36.25496 35.472502,-56.88036 8.0091488,-19.816 13.3918588,-40.49308 17.05977781,-61.34481 0,0 0,0 0,0 2.86604599,-16.27987 4.69680399,-32.71004 5.55172599,-49.16252 0,0 0,0 0,0 0.255746,-4.91985 0.424153,-9.84375 0.468497,-14.76619 0,0 0,0 0,0 0.01217,-1.33495 0.01508,-2.66983 0,-4.00431 0,0 0,0 0,0 0,-0.34716 -0.0082,-0.69429 -0.01376,-1.04135 0,-1.5e-4 0,-1.5e-4 0,-1.5e-4 0,-0.0888 0,-0.1773 -0.0063,-0.26594 0,-0.0228 0,-0.045 0,-0.0671 -1.06e-4,-0.0108 -1.06e-4,-0.0156 -1.06e-4,-0.0228 0,0 0,0 0,0 0,0 0,0 0,0 0,0.0101 -7.9e-5,0.0156 -1.85e-4,0.0228 0,0.0228 0,0.0455 0,0.0671 0,0.0888 -0.0063,0.17733 -0.0085,0.26591 -0.01217,0.34689 -0.02566,0.69358 -0.04072,1.04029 -0.05699,1.33284 -0.129223,2.66448 -0.210529,3.99574 0,0 0,0 0,0 -0.299799,4.90878 -0.723133,9.8068 -1.232932,14.69435 0,0 0,0 0,0 -1.704737,16.34474 -4.37493799,32.5652 -8.04926,48.52543 0,0 0,0 0,0 -4.709054,20.44194 -11.0600328,40.48574 -19.8470568,59.31212 -9.153393,19.5717 -20.967409,37.93088 -36.38984,52.28238 z"
           style="display:inline;fill:#00ff00;fill-rule:evenodd;stroke:none;stroke-width:0.26458332" />
      </g>
      <g
         transform="matrix(0.12002749,0.20789372,-0.20789372,0.12002749,87.747385,236.95073)"
         id="g4591"
         style="fill:#00ff00">
        <path
           style="display:inline;fill:#00ff00;fill-rule:evenodd;stroke:none;stroke-width:0.26458332"
           d="m 10.857938,215.63202 -10.32155519,0.0417 c 0,0.0101 0,0.0127 0,0.019 0,0.0238 0,0.0484 0,0.0723 0,0.0939 0.0071,0.18693 0.01085,0.27874 0,0 0,0 0,0 0.01482,0.36139 0.03193,0.71845 0.04905,1.07138 0,0 0,0 0,0 0,0 0,0 0,0 0.06718,1.33776 0.149595,2.66681 0.241617,3.98745 0,0 0,0 0,0 0.32863899,4.71779 0.78012399,9.41409 1.33011399,14.08748 0,0 0,0 0,0 1.682247,14.33451 4.275455,28.60889 8.2508722,42.4992 0,0 0,0 0,0 0,0 0,0 0,0 2.203609,7.70334 4.859629,15.31009 8.197903,22.61952 0,0 0,0 0,0 3.168095,6.94769 6.988016,13.66747 11.786156,19.64145 4.420843,5.5119 9.770751,10.36233 15.994411,13.65059 6.3595,3.35074 13.54153,4.87675 20.59032,4.63415 -7.04879,-0.24254 -13.9873,-2.25507 -19.8683,-5.89782 -5.77744,-3.56839 -10.53767,-8.57158 -14.410852,-14.11648 -4.205552,-6.02871 -7.397565,-12.71426 -10.001594,-19.6165 0,0 0,0 0,0 -2.734601,-7.26217 -4.782079,-14.77372 -6.408288,-22.38531 0,0 0,0 0,0 -2.932774,-13.73483 -4.477438,-27.73397 -5.16128,-41.7767 0,0 0,0 0,0 -0.220927,-4.57327 -0.344619,-9.14043 -0.347556,-13.69547 0,0 0,0 0,0 0,-1.27521 0.0085,-2.54288 0.03119,-3.80235 0,0 0,0 0,0 0.0063,-0.33224 0.01323,-0.6603 0.02222,-0.98407 0,0 0,0 0,0 0,-0.0847 0.0063,-0.16777 0.0071,-0.24979 0,-0.0209 0,-0.0417 0,-0.0631 2.38e-4,0 0,-0.01 0,-0.0156 z"
           id="path4585"
           inkscape:connector-curvature="0" />
        <path
           style="display:inline;fill:#00ff00;fill-rule:evenodd;stroke:none;stroke-width:0.26458332"
           d="m 66.991036,343.39518 v -10.32166 c -16.33024,0.60817 -31.971957,5.13945 -46.417439,11.52025 -14.0131272,6.1835 -27.0765592,14.05107 -39.341372,22.8115 0,0 0,0 0,0 -12.60983,10.7447 -25.17402,21.45226 -37.692622,32.12298 0,0 0,0 0,0 0,0 0,0 0,0 0,0 0,0 0,0 0,0 0,0 0,0 13.317564,-9.76669 26.589541,-19.49635 39.815823,-29.18912 0,0 0,0 0,0 12.7105308,-7.7325 25.9769768,-14.43977 39.774839,-19.31667 14.30962,-5.05508 29.245291,-8.23543 43.860771,-7.62728 z"
           id="path4587"
           inkscape:connector-curvature="0" />
        <path
           style="display:inline;fill:#00ff00;fill-rule:evenodd;stroke:none;stroke-width:0.26458332"
           d="m -60.084024,395.85351 7.247255,7.34941 c 15.786206,-16.42343 27.153844,-36.25496 35.472502,-56.88036 8.0091488,-19.816 13.3918588,-40.49308 17.05977781,-61.34481 0,0 0,0 0,0 2.86604599,-16.27987 4.69680399,-32.71004 5.55172599,-49.16252 0,0 0,0 0,0 0.255746,-4.91985 0.424153,-9.84375 0.468497,-14.76619 0,0 0,0 0,0 0.01217,-1.33495 0.01508,-2.66983 0,-4.00431 0,0 0,0 0,0 0,-0.34716 -0.0082,-0.69429 -0.01376,-1.04135 0,-1.5e-4 0,-1.5e-4 0,-1.5e-4 0,-0.0888 0,-0.1773 -0.0063,-0.26594 0,-0.0228 0,-0.045 0,-0.0671 -1.06e-4,-0.0108 -1.06e-4,-0.0156 -1.06e-4,-0.0228 0,0 0,0 0,0 0,0 0,0 0,0 0,0.0101 -7.9e-5,0.0156 -1.85e-4,0.0228 0,0.0228 0,0.0455 0,0.0671 0,0.0888 -0.0063,0.17733 -0.0085,0.26591 -0.01217,0.34689 -0.02566,0.69358 -0.04072,1.04029 -0.05699,1.33284 -0.129223,2.66448 -0.210529,3.99574 0,0 0,0 0,0 -0.299799,4.90878 -0.723133,9.8068 -1.232932,14.69435 0,0 0,0 0,0 -1.704737,16.34474 -4.37493799,32.5652 -8.04926,48.52543 0,0 0,0 0,0 -4.709054,20.44194 -11.0600328,40.48574 -19.8470568,59.31212 -9.153393,19.5717 -20.967409,37.93088 -36.38984,52.28238 z"
           id="path4589"
           inkscape:connector-curvature="0" />
      </g>
      <g
         id="g4599"
         transform="matrix(0.0621308,0.23187531,-0.23187531,0.0621308,95.970257,255.63398)"
         style="fill:#00ff00">
        <path
           inkscape:connector-curvature="0"
           id="path4593"
           d="m 10.857938,215.63202 -10.32155519,0.0417 c 0,0.0101 0,0.0127 0,0.019 0,0.0238 0,0.0484 0,0.0723 0,0.0939 0.0071,0.18693 0.01085,0.27874 0,0 0,0 0,0 0.01482,0.36139 0.03193,0.71845 0.04905,1.07138 0,0 0,0 0,0 0,0 0,0 0,0 0.06718,1.33776 0.149595,2.66681 0.241617,3.98745 0,0 0,0 0,0 0.32863899,4.71779 0.78012399,9.41409 1.33011399,14.08748 0,0 0,0 0,0 1.682247,14.33451 4.275455,28.60889 8.2508722,42.4992 0,0 0,0 0,0 0,0 0,0 0,0 2.203609,7.70334 4.859629,15.31009 8.197903,22.61952 0,0 0,0 0,0 3.168095,6.94769 6.988016,13.66747 11.786156,19.64145 4.420843,5.5119 9.770751,10.36233 15.994411,13.65059 6.3595,3.35074 13.54153,4.87675 20.59032,4.63415 -7.04879,-0.24254 -13.9873,-2.25507 -19.8683,-5.89782 -5.77744,-3.56839 -10.53767,-8.57158 -14.410852,-14.11648 -4.205552,-6.02871 -7.397565,-12.71426 -10.001594,-19.6165 0,0 0,0 0,0 -2.734601,-7.26217 -4.782079,-14.77372 -6.408288,-22.38531 0,0 0,0 0,0 -2.932774,-13.73483 -4.477438,-27.73397 -5.16128,-41.7767 0,0 0,0 0,0 -0.220927,-4.57327 -0.344619,-9.14043 -0.347556,-13.69547 0,0 0,0 0,0 0,-1.27521 0.0085,-2.54288 0.03119,-3.80235 0,0 0,0 0,0 0.0063,-0.33224 0.01323,-0.6603 0.02222,-0.98407 0,0 0,0 0,0 0,-0.0847 0.0063,-0.16777 0.0071,-0.24979 0,-0.0209 0,-0.0417 0,-0.0631 2.38e-4,0 0,-0.01 0,-0.0156 z"
           style="display:inline;fill:#00ff00;fill-rule:evenodd;stroke:none;stroke-width:0.26458332" />
        <path
           inkscape:connector-curvature="0"
           id="path4595"
           d="m 66.991036,343.39518 v -10.32166 c -16.33024,0.60817 -31.971957,5.13945 -46.417439,11.52025 -14.0131272,6.1835 -27.0765592,14.05107 -39.341372,22.8115 0,0 0,0 0,0 -12.60983,10.7447 -25.17402,21.45226 -37.692622,32.12298 0,0 0,0 0,0 0,0 0,0 0,0 0,0 0,0 0,0 0,0 0,0 0,0 13.317564,-9.76669 26.589541,-19.49635 39.815823,-29.18912 0,0 0,0 0,0 12.7105308,-7.7325 25.9769768,-14.43977 39.774839,-19.31667 14.30962,-5.05508 29.245291,-8.23543 43.860771,-7.62728 z"
           style="display:inline;fill:#00ff00;fill-rule:evenodd;stroke:none;stroke-width:0.26458332" />
        <path
           inkscape:connector-curvature="0"
           id="path4597"
           d="m -60.084024,395.85351 7.247255,7.34941 c 15.786206,-16.42343 27.153844,-36.25496 35.472502,-56.88036 8.0091488,-19.816 13.3918588,-40.49308 17.05977781,-61.34481 0,0 0,0 0,0 2.86604599,-16.27987 4.69680399,-32.71004 5.55172599,-49.16252 0,0 0,0 0,0 0.255746,-4.91985 0.424153,-9.84375 0.468497,-14.76619 0,0 0,0 0,0 0.01217,-1.33495 0.01508,-2.66983 0,-4.00431 0,0 0,0 0,0 0,-0.34716 -0.0082,-0.69429 -0.01376,-1.04135 0,-1.5e-4 0,-1.5e-4 0,-1.5e-4 0,-0.0888 0,-0.1773 -0.0063,-0.26594 0,-0.0228 0,-0.045 0,-0.0671 -1.06e-4,-0.0108 -1.06e-4,-0.0156 -1.06e-4,-0.0228 0,0 0,0 0,0 0,0 0,0 0,0 0,0.0101 -7.9e-5,0.0156 -1.85e-4,0.0228 0,0.0228 0,0.0455 0,0.0671 0,0.0888 -0.0063,0.17733 -0.0085,0.26591 -0.01217,0.34689 -0.02566,0.69358 -0.04072,1.04029 -0.05699,1.33284 -0.129223,2.66448 -0.210529,3.99574 0,0 0,0 0,0 -0.299799,4.90878 -0.723133,9.8068 -1.232932,14.69435 0,0 0,0 0,0 -1.704737,16.34474 -4.37493799,32.5652 -8.04926,48.52543 0,0 0,0 0,0 -4.709054,20.44194 -11.0600328,40.48574 -19.8470568,59.31212 -9.153393,19.5717 -20.967409,37.93088 -36.38984,52.28238 z"
           style="display:inline;fill:#00ff00;fill-rule:evenodd;stroke:none;stroke-width:0.26458332" />
      </g>
      <g
         transform="matrix(0,0.24005498,-0.24005498,0,99.632178,275.35061)"
         id="g4607"
         style="fill:#00ff00">
        <path
           style="display:inline;fill:#00ff00;fill-rule:evenodd;stroke:none;stroke-width:0.26458332"
           d="m 10.857938,215.63202 -10.32155519,0.0417 c 0,0.0101 0,0.0127 0,0.019 0,0.0238 0,0.0484 0,0.0723 0,0.0939 0.0071,0.18693 0.01085,0.27874 0,0 0,0 0,0 0.01482,0.36139 0.03193,0.71845 0.04905,1.07138 0,0 0,0 0,0 0,0 0,0 0,0 0.06718,1.33776 0.149595,2.66681 0.241617,3.98745 0,0 0,0 0,0 0.32863899,4.71779 0.78012399,9.41409 1.33011399,14.08748 0,0 0,0 0,0 1.682247,14.33451 4.275455,28.60889 8.2508722,42.4992 0,0 0,0 0,0 0,0 0,0 0,0 2.203609,7.70334 4.859629,15.31009 8.197903,22.61952 0,0 0,0 0,0 3.168095,6.94769 6.988016,13.66747 11.786156,19.64145 4.420843,5.5119 9.770751,10.36233 15.994411,13.65059 6.3595,3.35074 13.54153,4.87675 20.59032,4.63415 -7.04879,-0.24254 -13.9873,-2.25507 -19.8683,-5.89782 -5.77744,-3.56839 -10.53767,-8.57158 -14.410852,-14.11648 -4.205552,-6.02871 -7.397565,-12.71426 -10.001594,-19.6165 0,0 0,0 0,0 -2.734601,-7.26217 -4.782079,-14.77372 -6.408288,-22.38531 0,0 0,0 0,0 -2.932774,-13.73483 -4.477438,-27.73397 -5.16128,-41.7767 0,0 0,0 0,0 -0.220927,-4.57327 -0.344619,-9.14043 -0.347556,-13.69547 0,0 0,0 0,0 0,-1.27521 0.0085,-2.54288 0.03119,-3.80235 0,0 0,0 0,0 0.0063,-0.33224 0.01323,-0.6603 0.02222,-0.98407 0,0 0,0 0,0 0,-0.0847 0.0063,-0.16777 0.0071,-0.24979 0,-0.0209 0,-0.0417 0,-0.0631 2.38e-4,0 0,-0.01 0,-0.0156 z"
           id="path4601"
           inkscape:connector-curvature="0" />
        <path
           style="display:inline;fill:#00ff00;fill-rule:evenodd;stroke:none;stroke-width:0.26458332"
           d="m 66.991036,343.39518 v -10.32166 c -16.33024,0.60817 -31.971957,5.13945 -46.417439,11.52025 -14.0131272,6.1835 -27.0765592,14.05107 -39.341372,22.8115 0,0 0,0 0,0 -12.60983,10.7447 -25.17402,21.45226 -37.692622,32.12298 0,0 0,0 0,0 0,0 0,0 0,0 0,0 0,0 0,0 0,0 0,0 0,0 13.317564,-9.76669 26.589541,-19.49635 39.815823,-29.18912 0,0 0,0 0,0 12.7105308,-7.7325 25.9769768,-14.43977 39.774839,-19.31667 14.30962,-5.05508 29.245291,-8.23543 43.860771,-7.62728 z"
           id="path4603"
           inkscape:connector-curvature="0" />
        <path
           style="display:inline;fill:#00ff00;fill-rule:evenodd;stroke:none;stroke-width:0.26458332"
           d="m -60.084024,395.85351 7.247255,7.34941 c 15.786206,-16.42343 27.153844,-36.25496 35.472502,-56.88036 8.0091488,-19.816 13.3918588,-40.49308 17.05977781,-61.34481 0,0 0,0 0,0 2.86604599,-16.27987 4.69680399,-32.71004 5.55172599,-49.16252 0,0 0,0 0,0 0.255746,-4.91985 0.424153,-9.84375 0.468497,-14.76619 0,0 0,0 0,0 0.01217,-1.33495 0.01508,-2.66983 0,-4.00431 0,0 0,0 0,0 0,-0.34716 -0.0082,-0.69429 -0.01376,-1.04135 0,-1.5e-4 0,-1.5e-4 0,-1.5e-4 0,-0.0888 0,-0.1773 -0.0063,-0.26594 0,-0.0228 0,-0.045 0,-0.0671 -1.06e-4,-0.0108 -1.06e-4,-0.0156 -1.06e-4,-0.0228 0,0 0,0 0,0 0,0 0,0 0,0 0,0.0101 -7.9e-5,0.0156 -1.85e-4,0.0228 0,0.0228 0,0.0455 0,0.0671 0,0.0888 -0.0063,0.17733 -0.0085,0.26591 -0.01217,0.34689 -0.02566,0.69358 -0.04072,1.04029 -0.05699,1.33284 -0.129223,2.66448 -0.210529,3.99574 0,0 0,0 0,0 -0.299799,4.90878 -0.723133,9.8068 -1.232932,14.69435 0,0 0,0 0,0 -1.704737,16.34474 -4.37493799,32.5652 -8.04926,48.52543 0,0 0,0 0,0 -4.709054,20.44194 -11.0600328,40.48574 -19.8470568,59.31212 -9.153393,19.5717 -20.967409,37.93088 -36.38984,52.28238 z"
           id="path4605"
           inkscape:connector-curvature="0" />
      </g>
      <g
         id="g4615"
         transform="matrix(-0.0621308,0.2318753,-0.2318753,-0.0621308,97.315814,294.60321)"
         style="fill:#00ff00">
        <path
           inkscape:connector-curvature="0"
           id="path4609"
           d="m 10.857938,215.63202 -10.32155519,0.0417 c 0,0.0101 0,0.0127 0,0.019 0,0.0238 0,0.0484 0,0.0723 0,0.0939 0.0071,0.18693 0.01085,0.27874 0,0 0,0 0,0 0.01482,0.36139 0.03193,0.71845 0.04905,1.07138 0,0 0,0 0,0 0,0 0,0 0,0 0.06718,1.33776 0.149595,2.66681 0.241617,3.98745 0,0 0,0 0,0 0.32863899,4.71779 0.78012399,9.41409 1.33011399,14.08748 0,0 0,0 0,0 1.682247,14.33451 4.275455,28.60889 8.2508722,42.4992 0,0 0,0 0,0 0,0 0,0 0,0 2.203609,7.70334 4.859629,15.31009 8.197903,22.61952 0,0 0,0 0,0 3.168095,6.94769 6.988016,13.66747 11.786156,19.64145 4.420843,5.5119 9.770751,10.36233 15.994411,13.65059 6.3595,3.35074 13.54153,4.87675 20.59032,4.63415 -7.04879,-0.24254 -13.9873,-2.25507 -19.8683,-5.89782 -5.77744,-3.56839 -10.53767,-8.57158 -14.410852,-14.11648 -4.205552,-6.02871 -7.397565,-12.71426 -10.001594,-19.6165 0,0 0,0 0,0 -2.734601,-7.26217 -4.782079,-14.77372 -6.408288,-22.38531 0,0 0,0 0,0 -2.932774,-13.73483 -4.477438,-27.73397 -5.16128,-41.7767 0,0 0,0 0,0 -0.220927,-4.57327 -0.344619,-9.14043 -0.347556,-13.69547 0,0 0,0 0,0 0,-1.27521 0.0085,-2.54288 0.03119,-3.80235 0,0 0,0 0,0 0.0063,-0.33224 0.01323,-0.6603 0.02222,-0.98407 0,0 0,0 0,0 0,-0.0847 0.0063,-0.16777 0.0071,-0.24979 0,-0.0209 0,-0.0417 0,-0.0631 2.38e-4,0 0,-0.01 0,-0.0156 z"
           style="display:inline;fill:#00ff00;fill-rule:evenodd;stroke:none;stroke-width:0.26458332" />
        <path
           inkscape:connector-curvature="0"
           id="path4611"
           d="m 66.991036,343.39518 v -10.32166 c -16.33024,0.60817 -31.971957,5.13945 -46.417439,11.52025 -14.0131272,6.1835 -27.0765592,14.05107 -39.341372,22.8115 0,0 0,0 0,0 -12.60983,10.7447 -25.17402,21.45226 -37.692622,32.12298 0,0 0,0 0,0 0,0 0,0 0,0 0,0 0,0 0,0 0,0 0,0 0,0 13.317564,-9.76669 26.589541,-19.49635 39.815823,-29.18912 0,0 0,0 0,0 12.7105308,-7.7325 25.9769768,-14.43977 39.774839,-19.31667 14.30962,-5.05508 29.245291,-8.23543 43.860771,-7.62728 z"
           style="display:inline;fill:#00ff00;fill-rule:evenodd;stroke:none;stroke-width:0.26458332" />
        <path
           inkscape:connector-curvature="0"
           id="path4613"
           d="m -60.084024,395.85351 7.247255,7.34941 c 15.786206,-16.42343 27.153844,-36.25496 35.472502,-56.88036 8.0091488,-19.816 13.3918588,-40.49308 17.05977781,-61.34481 0,0 0,0 0,0 2.86604599,-16.27987 4.69680399,-32.71004 5.55172599,-49.16252 0,0 0,0 0,0 0.255746,-4.91985 0.424153,-9.84375 0.468497,-14.76619 0,0 0,0 0,0 0.01217,-1.33495 0.01508,-2.66983 0,-4.00431 0,0 0,0 0,0 0,-0.34716 -0.0082,-0.69429 -0.01376,-1.04135 0,-1.5e-4 0,-1.5e-4 0,-1.5e-4 0,-0.0888 0,-0.1773 -0.0063,-0.26594 0,-0.0228 0,-0.045 0,-0.0671 -1.06e-4,-0.0108 -1.06e-4,-0.0156 -1.06e-4,-0.0228 0,0 0,0 0,0 0,0 0,0 0,0 0,0.0101 -7.9e-5,0.0156 -1.85e-4,0.0228 0,0.0228 0,0.0455 0,0.0671 0,0.0888 -0.0063,0.17733 -0.0085,0.26591 -0.01217,0.34689 -0.02566,0.69358 -0.04072,1.04029 -0.05699,1.33284 -0.129223,2.66448 -0.210529,3.99574 0,0 0,0 0,0 -0.299799,4.90878 -0.723133,9.8068 -1.232932,14.69435 0,0 0,0 0,0 -1.704737,16.34474 -4.37493799,32.5652 -8.04926,48.52543 0,0 0,0 0,0 -4.709054,20.44194 -11.0600328,40.48574 -19.8470568,59.31212 -9.153393,19.5717 -20.967409,37.93088 -36.38984,52.28238 z"
           style="display:inline;fill:#00ff00;fill-rule:evenodd;stroke:none;stroke-width:0.26458332" />
      </g>
      <g
         transform="matrix(-0.12002749,0.20789371,-0.20789371,-0.12002749,89.272769,312.00895)"
         id="g4623"
         style="fill:#00ff00">
        <path
           style="display:inline;fill:#00ff00;fill-rule:evenodd;stroke:none;stroke-width:0.26458332"
           d="m 10.857938,215.63202 -10.32155519,0.0417 c 0,0.0101 0,0.0127 0,0.019 0,0.0238 0,0.0484 0,0.0723 0,0.0939 0.0071,0.18693 0.01085,0.27874 0,0 0,0 0,0 0.01482,0.36139 0.03193,0.71845 0.04905,1.07138 0,0 0,0 0,0 0,0 0,0 0,0 0.06718,1.33776 0.149595,2.66681 0.241617,3.98745 0,0 0,0 0,0 0.32863899,4.71779 0.78012399,9.41409 1.33011399,14.08748 0,0 0,0 0,0 1.682247,14.33451 4.275455,28.60889 8.2508722,42.4992 0,0 0,0 0,0 0,0 0,0 0,0 2.203609,7.70334 4.859629,15.31009 8.197903,22.61952 0,0 0,0 0,0 3.168095,6.94769 6.988016,13.66747 11.786156,19.64145 4.420843,5.5119 9.770751,10.36233 15.994411,13.65059 6.3595,3.35074 13.54153,4.87675 20.59032,4.63415 -7.04879,-0.24254 -13.9873,-2.25507 -19.8683,-5.89782 -5.77744,-3.56839 -10.53767,-8.57158 -14.410852,-14.11648 -4.205552,-6.02871 -7.397565,-12.71426 -10.001594,-19.6165 0,0 0,0 0,0 -2.734601,-7.26217 -4.782079,-14.77372 -6.408288,-22.38531 0,0 0,0 0,0 -2.932774,-13.73483 -4.477438,-27.73397 -5.16128,-41.7767 0,0 0,0 0,0 -0.220927,-4.57327 -0.344619,-9.14043 -0.347556,-13.69547 0,0 0,0 0,0 0,-1.27521 0.0085,-2.54288 0.03119,-3.80235 0,0 0,0 0,0 0.0063,-0.33224 0.01323,-0.6603 0.02222,-0.98407 0,0 0,0 0,0 0,-0.0847 0.0063,-0.16777 0.0071,-0.24979 0,-0.0209 0,-0.0417 0,-0.0631 2.38e-4,0 0,-0.01 0,-0.0156 z"
           id="path4617"
           inkscape:connector-curvature="0" />
        <path
           style="display:inline;fill:#00ff00;fill-rule:evenodd;stroke:none;stroke-width:0.26458332"
           d="m 66.991036,343.39518 v -10.32166 c -16.33024,0.60817 -31.971957,5.13945 -46.417439,11.52025 -14.0131272,6.1835 -27.0765592,14.05107 -39.341372,22.8115 0,0 0,0 0,0 -12.60983,10.7447 -25.17402,21.45226 -37.692622,32.12298 0,0 0,0 0,0 0,0 0,0 0,0 0,0 0,0 0,0 0,0 0,0 0,0 13.317564,-9.76669 26.589541,-19.49635 39.815823,-29.18912 0,0 0,0 0,0 12.7105308,-7.7325 25.9769768,-14.43977 39.774839,-19.31667 14.30962,-5.05508 29.245291,-8.23543 43.860771,-7.62728 z"
           id="path4619"
           inkscape:connector-curvature="0" />
        <path
           style="display:inline;fill:#00ff00;fill-rule:evenodd;stroke:none;stroke-width:0.26458332"
           d="m -60.084024,395.85351 7.247255,7.34941 c 15.786206,-16.42343 27.153844,-36.25496 35.472502,-56.88036 8.0091488,-19.816 13.3918588,-40.49308 17.05977781,-61.34481 0,0 0,0 0,0 2.86604599,-16.27987 4.69680399,-32.71004 5.55172599,-49.16252 0,0 0,0 0,0 0.255746,-4.91985 0.424153,-9.84375 0.468497,-14.76619 0,0 0,0 0,0 0.01217,-1.33495 0.01508,-2.66983 0,-4.00431 0,0 0,0 0,0 0,-0.34716 -0.0082,-0.69429 -0.01376,-1.04135 0,-1.5e-4 0,-1.5e-4 0,-1.5e-4 0,-0.0888 0,-0.1773 -0.0063,-0.26594 0,-0.0228 0,-0.045 0,-0.0671 -1.06e-4,-0.0108 -1.06e-4,-0.0156 -1.06e-4,-0.0228 0,0 0,0 0,0 0,0 0,0 0,0 0,0.0101 -7.9e-5,0.0156 -1.85e-4,0.0228 0,0.0228 0,0.0455 0,0.0671 0,0.0888 -0.0063,0.17733 -0.0085,0.26591 -0.01217,0.34689 -0.02566,0.69358 -0.04072,1.04029 -0.05699,1.33284 -0.129223,2.66448 -0.210529,3.99574 0,0 0,0 0,0 -0.299799,4.90878 -0.723133,9.8068 -1.232932,14.69435 0,0 0,0 0,0 -1.704737,16.34474 -4.37493799,32.5652 -8.04926,48.52543 0,0 0,0 0,0 -4.709054,20.44194 -11.0600328,40.48574 -19.8470568,59.31212 -9.153393,19.5717 -20.967409,37.93088 -36.38984,52.28238 z"
           id="path4621"
           inkscape:connector-curvature="0" />
      </g>
      <g
         id="g4631"
         transform="matrix(-0.1697445,0.1697445,-0.1697445,-0.1697445,76.332141,326.67391)"
         style="fill:#00ff00">
        <path
           inkscape:connector-curvature="0"
           id="path4625"
           d="m 10.857938,215.63202 -10.32155519,0.0417 c 0,0.0101 0,0.0127 0,0.019 0,0.0238 0,0.0484 0,0.0723 0,0.0939 0.0071,0.18693 0.01085,0.27874 0,0 0,0 0,0 0.01482,0.36139 0.03193,0.71845 0.04905,1.07138 0,0 0,0 0,0 0,0 0,0 0,0 0.06718,1.33776 0.149595,2.66681 0.241617,3.98745 0,0 0,0 0,0 0.32863899,4.71779 0.78012399,9.41409 1.33011399,14.08748 0,0 0,0 0,0 1.682247,14.33451 4.275455,28.60889 8.2508722,42.4992 0,0 0,0 0,0 0,0 0,0 0,0 2.203609,7.70334 4.859629,15.31009 8.197903,22.61952 0,0 0,0 0,0 3.168095,6.94769 6.988016,13.66747 11.786156,19.64145 4.420843,5.5119 9.770751,10.36233 15.994411,13.65059 6.3595,3.35074 13.54153,4.87675 20.59032,4.63415 -7.04879,-0.24254 -13.9873,-2.25507 -19.8683,-5.89782 -5.77744,-3.56839 -10.53767,-8.57158 -14.410852,-14.11648 -4.205552,-6.02871 -7.397565,-12.71426 -10.001594,-19.6165 0,0 0,0 0,0 -2.734601,-7.26217 -4.782079,-14.77372 -6.408288,-22.38531 0,0 0,0 0,0 -2.932774,-13.73483 -4.477438,-27.73397 -5.16128,-41.7767 0,0 0,0 0,0 -0.220927,-4.57327 -0.344619,-9.14043 -0.347556,-13.69547 0,0 0,0 0,0 0,-1.27521 0.0085,-2.54288 0.03119,-3.80235 0,0 0,0 0,0 0.0063,-0.33224 0.01323,-0.6603 0.02222,-0.98407 0,0 0,0 0,0 0,-0.0847 0.0063,-0.16777 0.0071,-0.24979 0,-0.0209 0,-0.0417 0,-0.0631 2.38e-4,0 0,-0.01 0,-0.0156 z"
           style="display:inline;fill:#00ff00;fill-rule:evenodd;stroke:none;stroke-width:0.26458332" />
        <path
           inkscape:connector-curvature="0"
           id="path4627"
           d="m 66.991036,343.39518 v -10.32166 c -16.33024,0.60817 -31.971957,5.13945 -46.417439,11.52025 -14.0131272,6.1835 -27.0765592,14.05107 -39.341372,22.8115 0,0 0,0 0,0 -12.60983,10.7447 -25.17402,21.45226 -37.692622,32.12298 0,0 0,0 0,0 0,0 0,0 0,0 0,0 0,0 0,0 0,0 0,0 0,0 13.317564,-9.76669 26.589541,-19.49635 39.815823,-29.18912 0,0 0,0 0,0 12.7105308,-7.7325 25.9769768,-14.43977 39.774839,-19.31667 14.30962,-5.05508 29.245291,-8.23543 43.860771,-7.62728 z"
           style="display:inline;fill:#00ff00;fill-rule:evenodd;stroke:none;stroke-width:0.26458332" />
        <path
           inkscape:connector-curvature="0"
           id="path4629"
           d="m -60.084024,395.85351 7.247255,7.34941 c 15.786206,-16.42343 27.153844,-36.25496 35.472502,-56.88036 8.0091488,-19.816 13.3918588,-40.49308 17.05977781,-61.34481 0,0 0,0 0,0 2.86604599,-16.27987 4.69680399,-32.71004 5.55172599,-49.16252 0,0 0,0 0,0 0.255746,-4.91985 0.424153,-9.84375 0.468497,-14.76619 0,0 0,0 0,0 0.01217,-1.33495 0.01508,-2.66983 0,-4.00431 0,0 0,0 0,0 0,-0.34716 -0.0082,-0.69429 -0.01376,-1.04135 0,-1.5e-4 0,-1.5e-4 0,-1.5e-4 0,-0.0888 0,-0.1773 -0.0063,-0.26594 0,-0.0228 0,-0.045 0,-0.0671 -1.06e-4,-0.0108 -1.06e-4,-0.0156 -1.06e-4,-0.0228 0,0 0,0 0,0 0,0 0,0 0,0 0,0.0101 -7.9e-5,0.0156 -1.85e-4,0.0228 0,0.0228 0,0.0455 0,0.0671 0,0.0888 -0.0063,0.17733 -0.0085,0.26591 -0.01217,0.34689 -0.02566,0.69358 -0.04072,1.04029 -0.05699,1.33284 -0.129223,2.66448 -0.210529,3.99574 0,0 0,0 0,0 -0.299799,4.90878 -0.723133,9.8068 -1.232932,14.69435 0,0 0,0 0,0 -1.704737,16.34474 -4.37493799,32.5652 -8.04926,48.52543 0,0 0,0 0,0 -4.709054,20.44194 -11.0600328,40.48574 -19.8470568,59.31212 -9.153393,19.5717 -20.967409,37.93088 -36.38984,52.28238 z"
           style="display:inline;fill:#00ff00;fill-rule:evenodd;stroke:none;stroke-width:0.26458332" />
      </g>
      <g
         transform="matrix(-0.20789371,0.12002749,-0.12002749,-0.20789371,60.004253,338.52703)"
         id="g4639"
         style="fill:#00ff00">
        <path
           style="display:inline;fill:#00ff00;fill-rule:evenodd;stroke:none;stroke-width:0.26458332"
           d="m 10.857938,215.63202 -10.32155519,0.0417 c 0,0.0101 0,0.0127 0,0.019 0,0.0238 0,0.0484 0,0.0723 0,0.0939 0.0071,0.18693 0.01085,0.27874 0,0 0,0 0,0 0.01482,0.36139 0.03193,0.71845 0.04905,1.07138 0,0 0,0 0,0 0,0 0,0 0,0 0.06718,1.33776 0.149595,2.66681 0.241617,3.98745 0,0 0,0 0,0 0.32863899,4.71779 0.78012399,9.41409 1.33011399,14.08748 0,0 0,0 0,0 1.682247,14.33451 4.275455,28.60889 8.2508722,42.4992 0,0 0,0 0,0 0,0 0,0 0,0 2.203609,7.70334 4.859629,15.31009 8.197903,22.61952 0,0 0,0 0,0 3.168095,6.94769 6.988016,13.66747 11.786156,19.64145 4.420843,5.5119 9.770751,10.36233 15.994411,13.65059 6.3595,3.35074 13.54153,4.87675 20.59032,4.63415 -7.04879,-0.24254 -13.9873,-2.25507 -19.8683,-5.89782 -5.77744,-3.56839 -10.53767,-8.57158 -14.410852,-14.11648 -4.205552,-6.02871 -7.397565,-12.71426 -10.001594,-19.6165 0,0 0,0 0,0 -2.734601,-7.26217 -4.782079,-14.77372 -6.408288,-22.38531 0,0 0,0 0,0 -2.932774,-13.73483 -4.477438,-27.73397 -5.16128,-41.7767 0,0 0,0 0,0 -0.220927,-4.57327 -0.344619,-9.14043 -0.347556,-13.69547 0,0 0,0 0,0 0,-1.27521 0.0085,-2.54288 0.03119,-3.80235 0,0 0,0 0,0 0.0063,-0.33224 0.01323,-0.6603 0.02222,-0.98407 0,0 0,0 0,0 0,-0.0847 0.0063,-0.16777 0.0071,-0.24979 0,-0.0209 0,-0.0417 0,-0.0631 2.38e-4,0 0,-0.01 0,-0.0156 z"
           id="path4633"
           inkscape:connector-curvature="0" />
        <path
           style="display:inline;fill:#00ff00;fill-rule:evenodd;stroke:none;stroke-width:0.26458332"
           d="m 66.991036,343.39518 v -10.32166 c -16.33024,0.60817 -31.971957,5.13945 -46.417439,11.52025 -14.0131272,6.1835 -27.0765592,14.05107 -39.341372,22.8115 0,0 0,0 0,0 -12.60983,10.7447 -25.17402,21.45226 -37.692622,32.12298 0,0 0,0 0,0 0,0 0,0 0,0 0,0 0,0 0,0 0,0 0,0 0,0 13.317564,-9.76669 26.589541,-19.49635 39.815823,-29.18912 0,0 0,0 0,0 12.7105308,-7.7325 25.9769768,-14.43977 39.774839,-19.31667 14.30962,-5.05508 29.245291,-8.23543 43.860771,-7.62728 z"
           id="path4635"
           inkscape:connector-curvature="0" />
        <path
           style="display:inline;fill:#00ff00;fill-rule:evenodd;stroke:none;stroke-width:0.26458332"
           d="m -60.084024,395.85351 7.247255,7.34941 c 15.786206,-16.42343 27.153844,-36.25496 35.472502,-56.88036 8.0091488,-19.816 13.3918588,-40.49308 17.05977781,-61.34481 0,0 0,0 0,0 2.86604599,-16.27987 4.69680399,-32.71004 5.55172599,-49.16252 0,0 0,0 0,0 0.255746,-4.91985 0.424153,-9.84375 0.468497,-14.76619 0,0 0,0 0,0 0.01217,-1.33495 0.01508,-2.66983 0,-4.00431 0,0 0,0 0,0 0,-0.34716 -0.0082,-0.69429 -0.01376,-1.04135 0,-1.5e-4 0,-1.5e-4 0,-1.5e-4 0,-0.0888 0,-0.1773 -0.0063,-0.26594 0,-0.0228 0,-0.045 0,-0.0671 -1.06e-4,-0.0108 -1.06e-4,-0.0156 -1.06e-4,-0.0228 0,0 0,0 0,0 0,0 0,0 0,0 0,0.0101 -7.9e-5,0.0156 -1.85e-4,0.0228 0,0.0228 0,0.0455 0,0.0671 0,0.0888 -0.0063,0.17733 -0.0085,0.26591 -0.01217,0.34689 -0.02566,0.69358 -0.04072,1.04029 -0.05699,1.33284 -0.129223,2.66448 -0.210529,3.99574 0,0 0,0 0,0 -0.299799,4.90878 -0.723133,9.8068 -1.232932,14.69435 0,0 0,0 0,0 -1.704737,16.34474 -4.37493799,32.5652 -8.04926,48.52543 0,0 0,0 0,0 -4.709054,20.44194 -11.0600328,40.48574 -19.8470568,59.31212 -9.153393,19.5717 -20.967409,37.93088 -36.38984,52.28238 z"
           id="path4637"
           inkscape:connector-curvature="0" />
      </g>
    </g>
  </g>
</svg>
